<svg xmlns="http://www.w3.org/2000/svg" viewBox="0 0 40 40" fill="none">
  <rect width="40" height="40" rx="10" fill="#0F172A"/>
  <g stroke="#38BDF8" stroke-width="1.8" stroke-linecap="round" stroke-linejoin="round">
    <!-- Left bracket / structural lines -->
    <path d="M12 10L8 20L12 30" opacity="0.5"/>
    <path d="M28 10L32 20L28 30" opacity="0.5"/>
    <!-- Node network -->
    <line x1="15" y1="14" x2="25" y2="14" opacity="0.4"/>
    <line x1="15" y1="14" x2="15" y2="26" opacity="0.4"/>
    <line x1="25" y1="14" x2="25" y2="26" opacity="0.4"/>
    <line x1="15" y1="26" x2="25" y2="26" opacity="0.4"/>
    <line x1="15" y1="14" x2="25" y2="26" opacity="0.25"/>
    <line x1="20" y1="14" x2="20" y2="26" opacity="0.3"/>
  </g>
  <!-- Nodes -->
  <circle cx="15" cy="14" r="2.5" fill="#38BDF8"/>
  <circle cx="25" cy="14" r="2.5" fill="#38BDF8"/>
  <circle cx="20" cy="20" r="2.8" fill="#818CF8"/>
  <circle cx="15" cy="26" r="2.5" fill="#38BDF8"/>
  <circle cx="25" cy="26" r="2.5" fill="#38BDF8"/>
  <!-- Center highlight -->
  <line x1="20" y1="14" x2="20" y2="20" stroke="#818CF8" stroke-width="1.5" stroke-linecap="round" opacity="0.6"/>
  <line x1="15" y1="26" x2="20" y2="20" stroke="#818CF8" stroke-width="1.5" stroke-linecap="round" opacity="0.6"/>
  <line x1="25" y1="26" x2="20" y2="20" stroke="#818CF8" stroke-width="1.5" stroke-linecap="round" opacity="0.6"/>
</svg>
